<svg height="800px" width="800px" version="1.1" id="Capa_1" xmlns="http://www.w3.org/2000/svg" xmlns:xlink="http://www.w3.org/1999/xlink" viewBox="0 0 485.3 485.3" xml:space="preserve">

  <g>
    <g>
      <g>
        <path d="M349.6,28.95c-36.3,0-70.5,14.2-96.2,39.9l-10.6,10.6L232,68.65c-25.7-25.7-59.9-39.9-96.2-39.9
          c-36.2,0-70.3,14.1-96,39.8S0,128.35,0,164.65s14.2,70.4,39.9,96.1l190.5,190.5l0.4,0.4c3.3,3.3,7.7,4.9,12,4.9
          c4.4,0,8.8-1.7,12.1-5l190.5-190.5c25.7-25.7,39.9-59.8,39.9-96.1s-14.1-70.5-39.8-96.1C419.9,43.05,385.8,28.95,349.6,28.95z" 
          fill="rgba(0, 0, 0, 0.5)" stroke="#FFFFFF" stroke-width="30"/>
      </g>
    </g>
  </g>
</svg>
